# xmcd
#
# Track frame offsets:
#   150
#   17579
#   35841
#   60938
#   83990
#   100622
#   118184
#   141096
#   158183
#   184220
#   212020
#
# Disc length: 3055 seconds
#
# Submitted via: SoundJam 2.0
#
# Revision: 0
# Processed by: cddbd v1.4b42PL0 Copyright (c) Steve Scherf et al.
#
DISCID=900bed0b
DTITLE=Relatively Blue - At Long Last
DYEAR=1900
DGENRE=
TTITLE0=Nothing Lasts
TTITLE1=Brace My Back
TTITLE2=Beyond the Light
TTITLE3=Let Me Know
TTITLE4=Somebody's Watching
TTITLE5=Lead the Way
TTITLE6=Riding the Moon
TTITLE7=Lose Yourself
TTITLE8=Rock 'n' Roll Blues Town
TTITLE9=Empty Room
TTITLE10=Far Away Mind
EXTD=
EXTT0=
EXTT1=
EXTT2=
EXTT3=
EXTT4=
EXTT5=
EXTT6=
EXTT7=
EXTT8=
EXTT9=
EXTT10=
PLAYORDER=
